PathFileType	4	(X/Y/Z)	s03c0401.trc
DataRate	CameraRate	NumFrames	NumMarkers	Units	OrigDataRate	OrigDataStartFrame	OrigNumFrames
200	200	5	52	mm	200	750	2000
Frame#	Time	racr			lacr			c7			jug			rlel			rdr			llel			ldr			s2			lic			ric			lasi			rasi			rpsi			lpsi			rgt			lgt			rth1			rth2			rth3			rth4			rlfc			rmfc			rsh1			rsh2			rsh3			rsh4			rlmal			rmmal			rcal			rtoe			rmt5			rmt1			lth1			lth2			lth4			lth3			llfc			lmfc			lsh1			lsh2			lsh3			lsh4			llmal			lmmal			lcal			ltoe			lmt1			lmt5			SBIKE			LBIKE			RBIKE			
		X1	Y1	Z1	X2	Y2	Z2	X3	Y3	Z3	X4	Y4	Z4	X5	Y5	Z5	X6	Y6	Z6	X7	Y7	Z7	X8	Y8	Z8	X9	Y9	Z9	X10	Y10	Z10	X11	Y11	Z11	X12	Y12	Z12	X13	Y13	Z13	X14	Y14	Z14	X15	Y15	Z15	X16	Y16	Z16	X17	Y17	Z17	X18	Y18	Z18	X19	Y19	Z19	X20	Y20	Z20	X21	Y21	Z21	X22	Y22	Z22	X23	Y23	Z23	X24	Y24	Z24	X25	Y25	Z25	X26	Y26	Z26	X27	Y27	Z27	X28	Y28	Z28	X29	Y29	Z29	X30	Y30	Z30	X31	Y31	Z31	X32	Y32	Z32	X33	Y33	Z33	X34	Y34	Z34	X35	Y35	Z35	X36	Y36	Z36	X37	Y37	Z37	X38	Y38	Z38	X39	Y39	Z39	X40	Y40	Z40	X41	Y41	Z41	X42	Y42	Z42	X43	Y43	Z43	X44	Y44	Z44	X45	Y45	Z45	X46	Y46	Z46	X47	Y47	Z47	X48	Y48	Z48	X49	Y49	Z49	X50	Y50	Z50	X51	Y51	Z51	X52	Y52	Z52	
750	3.7500	768.145021	1482.806257	-96.127064	748.646094	1460.856247	-435.743844	693.267780	1569.521378	-267.434309	720.604689	1398.722673	-255.722985	638.747390	1233.550525	44.623516	755.259907	985.434035	-17.068021	611.149152	1221.808466	-559.389403	732.177945	976.500586	-469.727483	181.750324	1265.375715	-232.503913	359.048159	1273.188918	-423.862951	355.260384	1310.653262	-61.545612	373.772071	1205.761895	-374.966915	387.440643	1240.203274	-99.831547	210.788937	1317.877948	-197.100408	212.189645	1312.220953	-284.480792	320.164025	1213.420714	-34.313877	272.279304	1147.963394	-421.386421	437.749757	1106.978627	-23.457066	522.069581	1078.551545	-31.402413	580.778535	1016.116824	-35.621882	537.509709	1107.308847	-47.721594	660.681817	915.409356	-62.805816	654.734955	895.544485	-190.113919	536.207614	809.784210	-35.618139	477.781052	746.569228	-50.346382	392.585160	717.852085	-47.685065	496.654571	726.551852	-76.615411	276.627964	651.395103	-62.288367	298.507322	649.406767	-152.523471	197.315627	658.721497	-97.541008	411.403978	436.209633	-132.470734	324.725052	505.322670	-52.223252	341.833207	503.396088	-166.288485	289.192789	998.666165	-438.578908	317.419292	916.698931	-443.524709	353.818398	920.066731	-444.327860	302.457363	829.318654	-432.007860	336.829572	706.199883	-411.748755	343.089359	688.967139	-290.754552	253.556013	558.359384	-440.477929	243.277694	474.556761	-427.683263	189.236730	402.389177	-424.069671	275.533109	463.270373	-408.527756	134.360280	287.790855	-409.549973	171.830944	285.097930	-324.037979	63.907109	276.391012	-366.560684	331.730702	119.567899	-359.750582	249.706646	168.551571	-322.183199	216.419640	154.759292	-435.884599	-217.148348	944.852590	-235.956751	-11.991917	80.639469	-435.652215	-11.701528	80.840597	-35.320228	
751	3.7550	769.218581	1481.390900	-94.149358	749.717399	1461.562341	-433.121257	694.730273	1569.085205	-264.421754	720.820567	1398.226653	-253.758280	638.336002	1233.025633	46.695531	755.471312	985.641968	-16.589531	612.442711	1223.131611	-557.895141	732.223624	976.296657	-470.598459	181.112222	1268.663897	-230.834503	357.801441	1276.639053	-422.761302	355.174205	1312.537384	-60.340983	372.201266	1208.883641	-374.513942	386.693859	1242.257996	-98.915815	209.858094	1320.961054	-194.917139	211.448629	1315.424615	-283.148942	320.119427	1216.202520	-33.724961	270.533718	1151.047033	-420.787222	437.970481	1109.963176	-23.963405	522.320820	1081.675453	-32.627191	581.111000	1019.361393	-37.568179	537.310945	1110.687553	-48.808899	661.929654	919.757575	-66.324061	655.574709	900.194017	-194.065221	539.791275	811.766766	-38.614764	483.569782	747.911191	-52.063157	397.386794	717.425845	-49.138706	498.554328	727.402328	-79.976322	282.226715	648.524945	-62.616951	303.417279	646.951680	-153.071315	202.381007	654.261638	-97.419454	421.128437	436.313159	-132.655677	333.215077	503.742014	-52.421718	350.104304	502.060617	-166.746915	288.827539	1001.948227	-438.427250	317.542007	920.142037	-443.898663	353.877206	923.760178	-444.721756	303.432396	833.043600	-432.848283	337.938077	709.180331	-413.739333	344.761341	692.138927	-292.596637	251.906280	562.904079	-441.900173	240.956745	479.026929	-428.737365	186.171258	407.415359	-424.430155	273.312335	467.369480	-410.128138	130.410418	293.592197	-409.515258	168.700345	290.045034	-325.103480	60.428992	284.533469	-366.018114	322.025189	117.547295	-357.359781	241.330486	168.642983	-319.483553	208.480280	157.806321	-435.596660	-217.178125	944.936122	-235.777885	-11.998120	80.729848	-435.634364	-11.722953	80.883361	-35.306629	
752	3.7600	770.410429	1479.590506	-92.191903	750.800389	1462.101616	-430.591175	696.248322	1568.355687	-261.178599	721.036747	1397.463700	-251.805529	637.829627	1232.637641	48.874936	755.666550	985.941106	-16.265840	613.736844	1224.449146	-556.367150	732.277653	976.151071	-471.511823	180.340977	1271.913677	-228.975975	356.363124	1280.226040	-421.542112	355.109466	1314.404073	-59.066830	370.471045	1212.080133	-374.171731	385.848056	1244.326179	-97.962489	209.025961	1324.240641	-192.575262	210.603280	1318.738921	-281.379964	320.094225	1219.118831	-32.956041	268.765523	1154.260766	-420.142897	437.942001	1112.773058	-24.451204	522.207054	1084.601535	-33.845398	580.730873	1022.182613	-39.358238	536.820607	1113.782487	-49.907058	662.717539	923.767997	-70.028234	655.839900	904.547042	-198.032729	542.622647	813.288259	-41.479318	487.435114	748.338375	-54.374034	401.840960	716.381519	-50.565248	502.520117	728.094077	-82.406278	287.638636	645.549370	-62.515979	308.146759	643.817610	-153.540209	207.198160	648.996466	-97.291718	430.813356	436.211712	-132.958795	341.410535	501.717667	-52.516200	358.187659	500.183523	-167.022744	288.808420	1005.283045	-438.222967	318.310260	923.804249	-444.240890	354.553544	927.749060	-444.963248	305.062598	836.430095	-433.715263	340.178118	712.385590	-416.025612	347.465000	695.436780	-294.799624	251.301260	567.470481	-443.192800	239.524091	483.773481	-429.797388	183.956437	412.822834	-424.922361	272.031269	471.708312	-411.797671	127.201260	299.903332	-409.410574	165.911609	295.741102	-325.572446	57.774128	293.519154	-365.753386	312.909421	117.299945	-357.264117	233.889248	170.544678	-319.236216	200.897089	161.638621	-435.243409	-217.201562	945.018470	-235.619025	-12.028694	80.849394	-435.602147	-11.726468	80.947933	-35.291560	
753	3.7650	771.631548	1477.562930	-90.335060	751.978085	1462.399822	-427.892720	697.945347	1567.226344	-258.223093	721.185482	1396.404650	-250.128105	637.315193	1231.883635	51.047907	755.947227	986.273044	-16.121150	614.973647	1225.688269	-554.944332	732.319769	976.027515	-472.376019	179.707845	1275.434206	-226.836273	354.801672	1283.857067	-420.392984	355.064656	1316.246130	-57.756030	368.586129	1215.286130	-373.699205	384.890008	1246.698066	-96.976835	208.336739	1327.557329	-190.234536	210.795245	1320.806111	-273.637221	319.993875	1222.042823	-32.171827	266.839359	1157.626523	-419.392795	437.578293	1115.504963	-24.836106	521.729306	1087.126267	-35.061109	579.614724	1024.700111	-40.810181	536.891099	1116.077085	-52.187355	662.252355	928.417948	-73.177171	654.064106	909.904284	-201.991229	544.886819	814.360374	-44.274229	490.920713	748.363949	-56.568773	405.933900	714.794698	-51.894303	506.012431	728.214081	-84.740579	292.694164	641.430883	-62.692421	312.477799	640.020684	-153.911509	212.217314	642.941853	-96.743276	440.092197	435.525895	-133.484168	349.542011	499.045078	-52.675204	366.059591	497.778982	-167.163663	289.076393	1008.571686	-437.957183	319.675386	927.598681	-444.663484	355.818209	931.971056	-445.251673	307.476542	839.985838	-435.327788	343.408891	715.769694	-418.583481	351.108830	698.854053	-297.411896	251.789642	572.251962	-444.627419	238.989239	488.748959	-431.104133	182.507363	418.576601	-425.500363	271.585291	476.191718	-413.448977	124.727254	306.688830	-409.525779	164.072264	301.386802	-327.422338	55.608935	302.785809	-365.216073	303.969376	117.487666	-357.021960	226.942369	173.256055	-318.969458	193.725694	165.914769	-434.761666	-217.200539	945.115047	-235.434167	-12.009450	80.937323	-435.555531	-11.706013	81.048693	-35.293829	
754	3.7700	772.859400	1475.288088	-88.620683	753.112589	1462.554930	-425.314441	699.729979	1565.870789	-255.319378	721.316860	1395.112368	-248.295728	636.772462	1231.001556	53.483141	755.980648	986.596332	-16.007264	616.088392	1226.892188	-553.610875	732.462388	976.125693	-473.075483	178.959842	1279.229340	-224.770015	353.137060	1287.438309	-419.191442	355.032325	1318.088865	-56.386363	366.683040	1218.414873	-373.356923	383.837803	1248.925212	-95.787854	208.148155	1331.141167	-188.366108	210.408602	1323.726519	-271.964458	319.939115	1225.046508	-31.174748	264.897584	1161.169994	-418.695190	436.884036	1117.974519	-25.207088	520.824062	1089.251661	-36.117476	577.718204	1027.080062	-42.059883	536.399531	1117.748002	-54.172585	662.060121	931.227806	-76.550465	653.549151	912.489344	-205.886994	546.553304	814.895710	-46.941688	493.553038	747.508060	-58.696398	409.346751	712.798075	-52.844100	509.074719	727.741010	-86.859244	297.445938	636.569634	-62.781002	316.505886	635.501715	-154.183068	216.246329	636.512732	-96.335073	449.455480	434.325478	-133.443841	357.375697	495.930956	-52.818205	373.641966	494.959853	-166.961560	289.668028	1011.839684	-437.668331	321.580464	931.453259	-445.065956	357.648600	936.362893	-445.476479	310.875195	843.588796	-436.770158	347.474259	719.308496	-421.360308	355.552986	702.323026	-300.139662	253.119459	577.156359	-446.237209	239.250868	493.801349	-432.322779	181.841496	424.514168	-426.178701	271.886426	480.831847	-415.176893	122.824692	313.915874	-409.750300	162.479735	308.072613	-327.705445	54.124177	312.457403	-364.757250	295.098721	118.076897	-356.801791	222.011038	178.826865	-322.579371	187.038922	170.960871	-434.543650	-217.158050	945.242469	-235.229749	-11.986386	80.995196	-435.663701	-11.697354	81.111001	-35.267061	
